<svg width="65" height="65" viewBox="0 0 65 65" fill="none" xmlns="http://www.w3.org/2000/svg">
<path d="M42 7H10C8.89543 7 8 7.89543 8 9V55C8 56.1046 8.89543 57 10 57H42" stroke="#8C8C8C" stroke-width="4" stroke-linecap="round"/>
<path d="M29 29C27.8954 29 27 29.8954 27 31C27 32.1046 27.8954 33 29 33V31V29ZM59.4142 32.4142C60.1953 31.6332 60.1953 30.3668 59.4142 29.5858L46.6863 16.8579C45.9052 16.0768 44.6389 16.0768 43.8579 16.8579C43.0768 17.6389 43.0768 18.9052 43.8579 19.6863L55.1716 31L43.8579 42.3137C43.0768 43.0948 43.0768 44.3611 43.8579 45.1421C44.6389 45.9232 45.9052 45.9232 46.6863 45.1421L59.4142 32.4142ZM29 31V33L58 33V31V29L29 29V31Z" fill="#8C8C8C"/>
</svg>
